<svg width="24" height="24" viewBox="0 0 24 24" fill="none" xmlns="http://www.w3.org/2000/svg">
<path d="M23.4504 12.2789C23.4504 11.4935 23.3749 10.6829 23.2491 9.92285H12.3524V14.4069H18.5934C18.3418 15.8509 17.5113 17.1175 16.2782 17.9282L20.0027 20.8415C22.1921 18.7895 23.4504 15.8002 23.4504 12.2789Z" fill="#4280EF"/>
<path d="M12.3524 23.6282C15.4729 23.6282 18.0901 22.5896 20.0027 20.8162L16.2782 17.9282C15.2464 18.6375 13.9126 19.0429 12.3524 19.0429C9.3325 19.0429 6.79078 16.9909 5.85965 14.2549L2.03448 17.2189C3.9974 21.1455 7.97356 23.6282 12.3524 23.6282Z" fill="#34A353"/>
<path d="M5.85966 14.2293C5.38152 12.7853 5.38152 11.2146 5.85966 9.77058L2.0345 6.78125C0.398738 10.0746 0.398738 13.9506 2.0345 17.2186L5.85966 14.2293Z" fill="#F6B704"/>
<path d="M12.3524 4.98269C13.9881 4.95736 15.5987 5.59069 16.7815 6.73069L20.0782 3.38669C17.9895 1.41069 15.2212 0.346691 12.3524 0.372024C7.97356 0.372024 3.9974 2.85469 2.03448 6.78136L5.85965 9.77069C6.79078 7.00936 9.3325 4.98269 12.3524 4.98269Z" fill="#E54335"/>
</svg>
