<svg width="21" height="20" viewBox="0 0 21 20" fill="none" xmlns="http://www.w3.org/2000/svg">
<path d="M19.0898 9.375H18.4383C18.2883 7.60894 17.5186 5.95282 16.2653 4.69953C15.012 3.44624 13.3559 2.67654 11.5898 2.52656V1.875C11.5898 1.70924 11.524 1.55027 11.4068 1.43306C11.2896 1.31585 11.1306 1.25 10.9648 1.25C10.7991 1.25 10.6401 1.31585 10.5229 1.43306C10.4057 1.55027 10.3398 1.70924 10.3398 1.875V2.52656C8.57378 2.67654 6.91766 3.44624 5.66437 4.69953C4.41108 5.95282 3.64138 7.60894 3.49141 9.375H2.83984C2.67408 9.375 2.51511 9.44085 2.3979 9.55806C2.28069 9.67527 2.21484 9.83424 2.21484 10C2.21484 10.1658 2.28069 10.3247 2.3979 10.4419C2.51511 10.5592 2.67408 10.625 2.83984 10.625H3.49141C3.64138 12.3911 4.41108 14.0472 5.66437 15.3005C6.91766 16.5538 8.57378 17.3235 10.3398 17.4734V18.125C10.3398 18.2908 10.4057 18.4497 10.5229 18.5669C10.6401 18.6842 10.7991 18.75 10.9648 18.75C11.1306 18.75 11.2896 18.6842 11.4068 18.5669C11.524 18.4497 11.5898 18.2908 11.5898 18.125V17.4734C13.3559 17.3235 15.012 16.5538 16.2653 15.3005C17.5186 14.0472 18.2883 12.3911 18.4383 10.625H19.0898C19.2556 10.625 19.4146 10.5592 19.5318 10.4419C19.649 10.3247 19.7148 10.1658 19.7148 10C19.7148 9.83424 19.649 9.67527 19.5318 9.55806C19.4146 9.44085 19.2556 9.375 19.0898 9.375ZM11.5898 16.2188V15.625C11.5898 15.4592 11.524 15.3003 11.4068 15.1831C11.2896 15.0658 11.1306 15 10.9648 15C10.7991 15 10.6401 15.0658 10.5229 15.1831C10.4057 15.3003 10.3398 15.4592 10.3398 15.625V16.2188C8.90615 16.0725 7.5668 15.4361 6.54776 14.4171C5.52873 13.398 4.89238 12.0587 4.74609 10.625H5.33984C5.5056 10.625 5.66458 10.5592 5.78179 10.4419C5.899 10.3247 5.96484 10.1658 5.96484 10C5.96484 9.83424 5.899 9.67527 5.78179 9.55806C5.66458 9.44085 5.5056 9.375 5.33984 9.375H4.74609C4.89238 7.94131 5.52873 6.60196 6.54776 5.58292C7.5668 4.56388 8.90615 3.92754 10.3398 3.78125V4.375C10.3398 4.54076 10.4057 4.69973 10.5229 4.81694C10.6401 4.93415 10.7991 5 10.9648 5C11.1306 5 11.2896 4.93415 11.4068 4.81694C11.524 4.69973 11.5898 4.54076 11.5898 4.375V3.78125C13.0235 3.92754 14.3629 4.56388 15.3819 5.58292C16.401 6.60196 17.0373 7.94131 17.1836 9.375H16.5898C16.4241 9.375 16.2651 9.44085 16.1479 9.55806C16.0307 9.67527 15.9648 9.83424 15.9648 10C15.9648 10.1658 16.0307 10.3247 16.1479 10.4419C16.2651 10.5592 16.4241 10.625 16.5898 10.625H17.1836C17.0373 12.0587 16.401 13.398 15.3819 14.4171C14.3629 15.4361 13.0235 16.0725 11.5898 16.2188ZM10.9648 6.875C10.3468 6.875 9.74259 7.05828 9.22869 7.40166C8.71478 7.74504 8.31424 8.2331 8.07772 8.80411C7.8412 9.37513 7.77931 10.0035 7.89989 10.6097C8.02047 11.2158 8.3181 11.7727 8.75514 12.2097C9.19217 12.6467 9.749 12.9444 10.3552 13.065C10.9614 13.1855 11.5897 13.1236 12.1607 12.8871C12.7317 12.6506 13.2198 12.2501 13.5632 11.7362C13.9066 11.2223 14.0898 10.6181 14.0898 10C14.0898 9.1712 13.7606 8.37634 13.1746 7.79029C12.5885 7.20424 11.7936 6.875 10.9648 6.875ZM10.9648 11.875C10.594 11.875 10.2315 11.765 9.92315 11.559C9.61481 11.353 9.37448 11.0601 9.23257 10.7175C9.09066 10.3749 9.05352 9.99792 9.12587 9.63421C9.19822 9.27049 9.37679 8.9364 9.63902 8.67417C9.90124 8.41195 10.2353 8.23337 10.599 8.16103C10.9628 8.08868 11.3398 8.12581 11.6824 8.26773C12.025 8.40964 12.3178 8.64996 12.5238 8.95831C12.7299 9.26665 12.8398 9.62916 12.8398 10C12.8398 10.4973 12.6423 10.9742 12.2907 11.3258C11.939 11.6775 11.4621 11.875 10.9648 11.875Z" fill="#8A1E61"/>
</svg>
