<svg width="40" height="40" viewBox="0 0 33 33" fill="none" xmlns="http://www.w3.org/2000/svg">
<circle cx="16.2911" cy="16.2911" r="15.7911" fill="#FCFAED" stroke="#545456"/>
<path d="M21.269 21.2692V15.5843C21.268 15.5217 21.2544 15.4599 21.2292 15.4026C21.2039 15.3452 21.1675 15.2936 21.1219 15.2506L16.5966 11.1382C16.5132 11.0619 16.4042 11.0195 16.2911 11.0195C16.1781 11.0195 16.0691 11.0619 15.9857 11.1382L11.4604 15.2506C11.4148 15.2936 11.3784 15.3452 11.3531 15.4026C11.3278 15.4599 11.3143 15.5217 11.3133 15.5843V21.2692" stroke="#545456" stroke-linecap="round" stroke-linejoin="round"/>
<path d="M17.6488 21.2692V18.1015C17.6488 17.9814 17.6011 17.8663 17.5162 17.7815C17.4314 17.6966 17.3163 17.6489 17.1963 17.6489H15.3861C15.2661 17.6489 15.151 17.6966 15.0661 17.7815C14.9813 17.8663 14.9336 17.9814 14.9336 18.1015V21.2692" stroke="#545456" stroke-linecap="round" stroke-linejoin="round"/>
</svg>
