<svg width="60" height="60" viewBox="0 0 36 36" fill="none" xmlns="http://www.w3.org/2000/svg">
<circle cx="18" cy="18" r="17.5" fill="#8A1E61" stroke="white"/>
<path d="M23.5 23.5V17.2188C23.4989 17.1496 23.4839 17.0813 23.456 17.018C23.4281 16.9546 23.3878 16.8975 23.3375 16.85L18.3375 12.3063C18.2453 12.2219 18.1249 12.1752 18 12.1752C17.8751 12.1752 17.7547 12.2219 17.6625 12.3063L12.6625 16.85C12.6122 16.8975 12.5719 16.9546 12.544 17.018C12.5161 17.0813 12.5011 17.1496 12.5 17.2188V23.5" stroke="white" stroke-linecap="round" stroke-linejoin="round"/>
<path d="M19.5 23.5V20C19.5 19.8674 19.4473 19.7402 19.3536 19.6464C19.2598 19.5527 19.1326 19.5 19 19.5H17C16.8674 19.5 16.7402 19.5527 16.6464 19.6464C16.5527 19.7402 16.5 19.8674 16.5 20V23.5" stroke="white" stroke-linecap="round" stroke-linejoin="round"/>
</svg>
