<svg width="21" height="20" viewBox="0 0 21 20" fill="none" xmlns="http://www.w3.org/2000/svg">
<path d="M18.4648 11.875V16.25C18.4648 16.5815 18.3331 16.8995 18.0987 17.1339C17.8643 17.3683 17.5464 17.5 17.2148 17.5H4.71484C4.38332 17.5 4.06538 17.3683 3.83096 17.1339C3.59654 16.8995 3.46484 16.5815 3.46484 16.25V11.875C3.46484 11.7092 3.53069 11.5503 3.6479 11.4331C3.76511 11.3159 3.92408 11.25 4.08984 11.25C4.2556 11.25 4.41458 11.3159 4.53179 11.4331C4.649 11.5503 4.71484 11.7092 4.71484 11.875V16.25H17.2148V11.875C17.2148 11.7092 17.2807 11.5503 17.3979 11.4331C17.5151 11.3159 17.6741 11.25 17.8398 11.25C18.0056 11.25 18.1646 11.3159 18.2818 11.4331C18.399 11.5503 18.4648 11.7092 18.4648 11.875ZM7.83984 6.875H10.3398V11.875C10.3398 12.0408 10.4057 12.1997 10.5229 12.3169C10.6401 12.4342 10.7991 12.5 10.9648 12.5C11.1306 12.5 11.2896 12.4342 11.4068 12.3169C11.524 12.1997 11.5898 12.0408 11.5898 11.875V6.875H14.0898C14.2135 6.8751 14.3345 6.8385 14.4373 6.76983C14.5402 6.70116 14.6204 6.60351 14.6677 6.48925C14.7151 6.37498 14.7275 6.24924 14.7033 6.12794C14.6791 6.00663 14.6195 5.89523 14.532 5.80782L11.407 2.68282C11.349 2.62471 11.2801 2.57861 11.2042 2.54715C11.1283 2.5157 11.047 2.49951 10.9648 2.49951C10.8827 2.49951 10.8014 2.5157 10.7255 2.54715C10.6496 2.57861 10.5807 2.62471 10.5227 2.68282L7.39766 5.80782C7.31015 5.89523 7.25054 6.00663 7.22639 6.12794C7.20223 6.24924 7.21461 6.37498 7.26195 6.48925C7.3093 6.60351 7.38948 6.70116 7.49236 6.76983C7.59523 6.8385 7.71616 6.8751 7.83984 6.875Z" fill="#8A1E61"/>
</svg>
